<?xml version="1.0" encoding="UTF-8" standalone="no"?>
<!-- Uploaded to: SVG Repo, www.svgrepo.com, Generator: SVG Repo Mixer Tools -->

<svg
   width="650"
   height="800"
   viewBox="-3 0 26 32"
   version="1.1"
   id="svg11"
   xmlns="http://www.w3.org/2000/svg"
   xmlns:svg="http://www.w3.org/2000/svg"
   xmlns:sketch="http://www.bohemiancoding.com/sketch/ns">
  <title
     id="title2">trash</title>
  <desc
     id="desc4">Created with Sketch Beta.</desc>
  <defs
     id="defs6" />
  <g
     id="Page-1"
     stroke="none"
     stroke-width="1"
     fill="none"
     fill-rule="evenodd"
     sketch:type="MSPage"
     transform="translate(-3)">
    <g
       id="Icon-Set-Filled"
       sketch:type="MSLayerGroup"
       transform="translate(-261,-205)"
       fill="#000000">
      <path
         d="m 268,220 c 0,-0.552 0.448,-1 1,-1 0.552,0 1,0.448 1,1 v 12 c 0,0.553 -0.448,1 -1,1 -0.552,0 -1,-0.447 -1,-1 z m 5,0 c 0,-0.552 0.448,-1 1,-1 0.552,0 1,0.448 1,1 v 12 c 0,0.553 -0.448,1 -1,1 -0.552,0 -1,-0.447 -1,-1 z m 5,0 c 0,-0.552 0.448,-1 1,-1 0.552,0 1,0.448 1,1 v 12 c 0,0.553 -0.448,1 -1,1 -0.552,0 -1,-0.447 -1,-1 z m -15,13 c 0,2.209 1.791,4 4,4 h 14 c 2.209,0 4,-1.791 4,-4 v -16 h -22 z m 14,-24 h -6 v -1 c 0,-0.553 0.448,-1 1,-1 h 4 c 0.552,0 1,0.447 1,1 z m 8,0 h -6 v -2 c 0,-1.104 -0.896,-2 -2,-2 h -6 c -1.104,0 -2,0.896 -2,2 v 2 h -6 c -1.104,0 -2,0.896 -2,2 v 2 c 0,1.104 0.895,1.999 1.999,2 h 22.003 c 1.103,-0.001 1.998,-0.896 1.998,-2 v -2 c 0,-1.104 -0.896,-2 -2,-2 z"
         id="trash"
         sketch:type="MSShapeGroup"
         style="fill:#959595;fill-opacity:1;stroke:none;stroke-opacity:1" />
    </g>
  </g>
</svg>
